<?xml version="1.0" encoding="utf-8" ?><svg xmlns="http://www.w3.org/2000/svg" xmlns:xlink="http://www.w3.org/1999/xlink" width="512" height="512" viewBox="0 0 512 512"><defs><linearGradient id="gradient_0" gradientUnits="userSpaceOnUse" x1="267.40155" y1="381.25806" x2="268.29211" y2="32.320812"><stop offset="0" stop-color="#2A2A2A"/><stop offset="1" stop-color="#777"/></linearGradient></defs><path fill="url(#gradient_0)" d="M177.788 45.1635C191.032 34.5624 212.426 25.1367 228.801 21.0511C233.659 19.3329 239.856 19.0852 244.593 17.7661C250.739 16.0543 253.875 16.2451 260.376 16.203C269.459 16.1443 278.68 15.9429 287.755 16.6572C290.276 16.8556 293.216 17.8373 295.765 18.1465C308.159 20.433 320.575 23.9218 332.094 29.0723C333.613 29.7515 337.556 31.4104 338.805 32.3155C340.853 33.2512 342.783 34.3405 344.727 35.4078C388.416 59.3865 415.155 105.18 421.392 153.88C421.657 155.947 423.175 157.692 423.476 159.68C423.693 166.28 423.613 173.224 423.672 179.821C423.733 187.082 423.731 194.344 423.664 201.605C423.654 205.198 423.808 208.799 423.621 212.383C423.489 214.913 421.956 217.461 421.639 219.924C415.009 271.369 392.129 319.259 351.349 352.115C345.903 355.515 341.882 359.292 335.56 362.873L333.992 363.874C332.805 364.489 328.354 366.818 327.395 367.584C326.223 368.032 325.237 368.599 324.133 369.19C324.975 371.203 326.037 374.564 326.32 376.736L326.411 376.936C326.525 377.511 326.639 378.211 326.803 378.762L327.013 379.26C327.149 380.072 327.217 380.509 327.467 381.31C326.879 381.837 326.524 383.765 326.189 384.606C323.32 391.817 319.886 399.53 315.854 406.14C309.944 415.991 303.412 425.455 296.295 434.473C290.113 442.153 283.615 449.143 277.157 456.494C275.945 457.08 275.375 457.959 274.5 458.993C269.606 451.9 263.131 447.749 257.501 441.443C247.748 430.516 238.207 419.105 228.943 407.772C227.01 405.407 214.315 388.382 213.56 387.962L213.244 388.294C213.268 388.914 213.311 389.45 213.363 390.065C212.119 387.707 210.885 383.907 209.921 381.288C210.199 378.692 210.44 375.957 210.89 373.396C211.158 371.495 211.38 370.115 211.932 368.287C207.058 366.095 200.88 362.292 196.401 359.341C173.706 344.39 158.492 326.463 144.154 303.803C143.524 302.468 142.723 301.091 141.974 299.812C136.642 290.707 132.58 281.233 128.56 271.504C128.098 269.433 126.675 265.646 125.92 263.624C118.658 244.183 116.663 224.271 113.806 203.917C113.226 203.409 113.141 203.234 112.697 202.615C112.229 199.638 112.191 174.926 112.709 172.292C112.821 172.174 113.819 171.104 113.829 171.03C114.241 167.713 114.791 164.364 115.136 161.042C119.776 116.418 140.305 71.7731 177.788 45.1635Z"/><defs><linearGradient id="gradient_1" gradientUnits="userSpaceOnUse" x1="269.22546" y1="315.00223" x2="267.88614" y2="24.47517"><stop offset="0" stop-color="#060606"/><stop offset="1" stop-color="#494949"/></linearGradient></defs><path fill="url(#gradient_1)" d="M177.788 45.1635C191.032 34.5624 212.426 25.1367 228.801 21.0511C233.659 19.3329 239.856 19.0852 244.593 17.7661C250.739 16.0543 253.875 16.2451 260.376 16.203C269.459 16.1443 278.68 15.9429 287.755 16.6572C290.276 16.8556 293.216 17.8373 295.765 18.1465C308.159 20.433 320.575 23.9218 332.094 29.0723C333.613 29.7515 337.556 31.4104 338.805 32.3155L338.449 33.0472C339.741 34.2508 340.524 34.2524 341.858 35.2721C341.761 35.7735 341.825 35.5812 341.486 36.014C341.627 36.1693 342.74 37.0467 342.725 36.9035C343.16 41.0014 343.356 40.4523 346.877 42.1557C348.027 42.7117 349.196 45.4096 350.823 46.1644C351.066 47.5139 350.353 46.7617 350.63 48.4275C393.571 77.1121 413.551 126.068 415.45 176.664C417.255 224.741 406.433 270.497 379.287 310.642C378.346 312.033 378.053 312.586 377.432 314.144L377.234 313.616L377.272 313.7C377.677 311.583 380.249 308.157 381.314 306.099C382.185 304.416 383.057 302.818 383.883 301.045C399.621 267.254 404.627 219.571 393.002 184.135C391.088 178.439 388.608 172.949 385.6 167.747C375.696 150.422 358.765 140.211 339.937 135.104C316.482 128.742 289.314 129.811 265.122 129.856C246.039 129.892 226.46 129.485 207.602 132.791C196.909 134.665 185.967 138.011 176.531 143.437C160.167 152.847 148.615 168.838 143.724 187.004C142.422 191.838 141.144 196.762 140.354 201.705C137.787 217.777 137.926 241.202 140.505 257.261C141.943 266.211 144.229 274.79 146.941 283.422C148.975 289.896 152.305 299.5 155.772 305.264C156.519 306.506 161.439 314.608 161.474 315.445L161.397 315.631C160.642 314.772 160.063 313.201 159.42 312.298C157.345 309.386 155.971 306.226 154.048 303.146C152.647 300.901 150.445 298.191 149.245 296.01C141.396 281.754 135.046 266.692 130.644 251.014C129.357 246.43 128.135 242.713 127.088 238.024C125.781 232.17 125.453 227.019 124.649 221.233C123.839 215.408 123.075 210.607 122.609 204.641C121.738 193.47 121.869 182.942 122.516 171.787C124.964 129.581 140.161 88.7018 172.194 60.0531C172.826 59.4877 178.626 54.669 178.783 54.4331C179.347 53.4647 179.459 53.4714 179.326 52.5541C179.099 52.2833 178.879 52.0071 178.666 51.7255C177.276 49.8711 177.933 46.729 179.655 45.7182L179.69 45.3336C179.024 44.8332 178.924 45.0597 177.788 45.1635Z"/><path fill="#6A6A6A" d="M177.788 45.1635C191.032 34.5624 212.426 25.1367 228.801 21.0511C233.659 19.3329 239.856 19.0852 244.593 17.7661C250.739 16.0543 253.875 16.2451 260.376 16.203C269.459 16.1443 278.68 15.9429 287.755 16.6572C290.276 16.8556 293.216 17.8373 295.765 18.1465C308.159 20.433 320.575 23.9218 332.094 29.0723C333.613 29.7515 337.556 31.4104 338.805 32.3155L338.449 33.0472C339.741 34.2508 340.524 34.2524 341.858 35.2721C341.761 35.7735 341.825 35.5812 341.486 36.014C341.627 36.1693 342.74 37.0467 342.725 36.9035C343.16 41.0014 343.356 40.4523 346.877 42.1557C348.027 42.7117 349.196 45.4096 350.823 46.1644C351.066 47.5139 350.353 46.7617 350.63 48.4275C320.761 27.3073 279.921 20.3057 244.206 25.9633C219.916 29.8111 198.25 39.5722 178.783 54.4331C179.347 53.4647 179.459 53.4714 179.326 52.5541C179.099 52.2833 178.879 52.0071 178.666 51.7255C177.276 49.8711 177.933 46.729 179.655 45.7182L179.69 45.3336C179.024 44.8332 178.924 45.0597 177.788 45.1635Z"/><path fill="#151515" d="M128.145 175.593C131.131 155.913 135.646 137.745 144.676 119.902C145.602 118.071 149.394 110.963 150.623 109.485C150.764 110.16 150.196 110.86 149.813 111.478C138.582 129.598 132.765 150.288 129.109 171.138C128.804 172.875 128.565 175.221 130.738 175.498C131.111 176.252 130.991 175.838 130.876 176.838C130.165 177.839 128.317 178.296 128.25 178.651C127.091 184.787 126.489 197.708 126.111 203.321C125.648 200 127.168 181.464 127.867 178.176C127.138 177.35 126.414 177.718 125.772 176.412C126.567 175.683 127.159 176.259 128.145 175.593Z"/><path fill="#292929" d="M128.145 175.593C128.125 176.283 128.203 177.72 127.867 178.176C127.138 177.35 126.414 177.718 125.772 176.412C126.567 175.683 127.159 176.259 128.145 175.593Z"/><defs><linearGradient id="gradient_2" gradientUnits="userSpaceOnUse" x1="269.15851" y1="458.54523" x2="268.44086" y2="373.76379"><stop offset="0" stop-color="#161616"/><stop offset="1" stop-color="#464646"/></linearGradient></defs><path fill="url(#gradient_2)" d="M211.932 368.287C220.533 372.335 229.451 375.947 238.702 378.254C265.501 384.938 294.862 382.311 320.005 370.855C321.003 370.4 323.184 369.416 324.133 369.19C324.975 371.203 326.037 374.564 326.32 376.736L326.411 376.936C326.525 377.511 326.639 378.211 326.803 378.762L327.013 379.26C327.149 380.072 327.217 380.509 327.467 381.31C326.879 381.837 326.524 383.765 326.189 384.606C323.32 391.817 319.886 399.53 315.854 406.14C309.944 415.991 303.412 425.455 296.295 434.473C290.113 442.153 283.615 449.143 277.157 456.494C275.945 457.08 275.375 457.959 274.5 458.993C269.606 451.9 263.131 447.749 257.501 441.443C247.748 430.516 238.207 419.105 228.943 407.772C227.01 405.407 214.315 388.382 213.56 387.962L213.244 388.294C213.268 388.914 213.311 389.45 213.363 390.065C212.119 387.707 210.885 383.907 209.921 381.288C210.199 378.692 210.44 375.957 210.89 373.396C211.158 371.495 211.38 370.115 211.932 368.287Z"/><path fill="#151515" d="M211.932 368.287C220.533 372.335 229.451 375.947 238.702 378.254C265.501 384.938 294.862 382.311 320.005 370.855C321.003 370.4 323.184 369.416 324.133 369.19C324.975 371.203 326.037 374.564 326.32 376.736C324.642 377.589 321.212 381.865 319.315 383.311C304.512 394.597 286.111 398.141 267.851 397.999C246.095 397.829 226.524 388.973 211.267 373.609C211.141 373.538 211.016 373.467 210.89 373.396C211.158 371.495 211.38 370.115 211.932 368.287Z"/><path fill="#FEC927" d="M153.819 278.407C153.066 276.442 151.746 271.414 151.225 269.243C145.105 242.638 144.412 212.787 152.122 186.517C167.035 135.706 222.138 137.699 265.024 137.941C303.758 138.158 360.755 133.174 380.947 175.155C394.087 202.475 393.782 247.752 384.393 276.132C383.998 277.518 383.581 278.898 383.143 280.272C382.842 281.621 382.563 282.545 382.147 283.84C379.975 282.636 374.369 280.933 371.741 280.068L353.237 273.995C339.741 269.638 326.061 265.874 312.236 262.713C287.066 257.07 271.882 255.039 246.642 259.227C238.016 260.634 229.484 262.566 221.092 265.011C207.142 269.034 193.368 273.647 179.808 278.837C174.924 280.688 170.062 282.553 165.154 284.347C162.473 285.326 159.81 286.751 157.056 287.602C156.323 285.963 155.682 284.538 155.281 282.764L153.819 278.407Z"/><path fill="#D5A820" d="M153.819 278.407C153.066 276.442 151.746 271.414 151.225 269.243C145.105 242.638 144.412 212.787 152.122 186.517C167.035 135.706 222.138 137.699 265.024 137.941C303.758 138.158 360.755 133.174 380.947 175.155C394.087 202.475 393.782 247.752 384.393 276.132C384.309 276.007 384.222 275.885 384.141 275.757C383.076 274.067 385.19 264.278 385.389 261.679C386.131 252.323 386.205 242.927 385.612 233.561C381.151 154.683 332.323 153.391 267.254 153.992C223.132 154.399 169.926 150.867 156.075 205.618C151.791 223.168 150.698 239.228 151.877 257.53C152.16 261.365 152.587 265.187 153.159 268.989C153.68 272.312 154.605 275.12 153.819 278.407Z"/><path fill="#6A6A6A" d="M155.281 282.764C161.717 279.293 170.387 275.009 177.115 272.053C204.648 259.952 243.348 242.123 273.613 243.345C300.64 244.437 335.041 258.378 359.623 269.142C364.654 271.346 369.64 273.649 374.58 276.049C377.171 277.286 380.705 278.86 383.143 280.272C382.842 281.621 382.563 282.545 382.147 283.84C379.975 282.636 374.369 280.933 371.741 280.068L353.237 273.995C339.741 269.638 326.061 265.874 312.236 262.713C287.066 257.07 271.882 255.039 246.642 259.227C238.016 260.634 229.484 262.566 221.092 265.011C207.142 269.034 193.368 273.647 179.808 278.837C174.924 280.688 170.062 282.553 165.154 284.347C162.473 285.326 159.81 286.751 157.056 287.602C156.323 285.963 155.682 284.538 155.281 282.764Z"/><path fill="#292929" d="M332.893 211C343.987 209.59 354.128 217.429 355.559 228.52C356.99 239.611 349.171 249.767 338.083 251.22C326.964 252.676 316.774 244.831 315.339 233.71C313.904 222.588 321.769 212.414 332.893 211Z"/><path fill="#292929" d="M199.932 210.964C211.082 209.729 221.116 217.785 222.32 228.939C223.523 240.093 215.439 250.104 204.282 251.276C193.169 252.444 183.206 244.399 182.007 233.289C180.809 222.179 188.825 212.194 199.932 210.964Z"/><path fill="#6F4E43" d="M330.629 182.599C341.79 181.57 354.869 184.487 362.655 193.024C364.909 195.261 366.283 198.987 363.498 201.451C359.691 204.818 352.829 200.999 348.43 199.679C345.24 198.694 341.947 198.081 338.616 197.852C332.973 197.099 325.896 198.253 320.411 199.872C316.667 200.977 310.206 204.422 306.599 201.885C302.884 199.273 303.903 196.367 306.434 193.428C312.497 186.388 321.62 183.409 330.629 182.599Z"/><path fill="#6F4E43" d="M199.254 182.602C210.388 181.609 223.443 184.659 231.091 193.289C232.878 195.199 234.746 199.507 232.006 201.442C228.596 203.803 225.123 202.66 221.612 201.346C216.595 199.469 211.898 198.345 206.56 197.813C195.425 197.042 189.365 199.84 179.234 202.833C175.208 204.022 169.264 199.01 174.685 193.394C181.706 186.121 189.128 183.427 199.254 182.602Z"/><path fill="#292929" d="M191.943 379.141C198.622 376.227 205.029 373.563 209.921 381.288C210.885 383.907 212.119 387.707 213.363 390.065C213.311 389.45 213.268 388.914 213.244 388.294L213.56 387.962C214.315 388.382 227.01 405.407 228.943 407.772C238.207 419.105 247.748 430.516 257.501 441.443C263.131 447.749 269.606 451.9 274.5 458.993C275.375 457.959 275.945 457.08 277.157 456.494C276.321 457.488 275.457 458.46 274.566 459.406C282.731 467.508 291.931 475.579 301.122 482.512C302.944 483.885 304.519 486.085 306.323 487.497C304.645 489.366 300.64 493.493 299.98 495.748L298.415 495.766C276.867 495.932 255.317 495.917 233.769 495.721L171.037 495.666L155.208 495.715C152.994 495.723 147.949 495.841 145.931 495.49C128.201 495.644 110.471 495.68 92.7404 495.598C80.7609 495.598 68.3495 495.828 56.4291 495.716C56.2591 493.436 56.1164 481.498 56.8006 479.886C57.1312 479.631 57.7953 479.165 57.862 478.759C58.1484 477.02 58.354 475.118 58.6468 473.391C59.3441 469.331 60.3692 465.335 61.712 461.441C66.1254 448.915 74.4435 437.945 84.4865 429.413C86.338 427.84 89.0369 425.319 91.1547 424.295C91.0009 422.965 88.9784 418.134 88.5554 416.123C88.0083 412.6 87.3312 408.871 87.2198 405.335C91.0956 403.525 98.7806 402.009 103.16 400.578C104.672 400.298 105.791 399.996 107.268 399.589C110.169 399.238 115.121 398.143 117.723 397.097C118.754 397.278 141.916 392.907 144.76 392.232C150.073 391.559 158.72 390.401 163.847 389.336C164.762 389.128 166.806 388.908 167.815 388.773L167.98 387.621C168.904 386.159 177.184 384.024 179.228 383.367C183.434 382.016 187.721 380.398 191.943 379.141Z"/><defs><linearGradient id="gradient_3" gradientUnits="userSpaceOnUse" x1="251.98883" y1="508.24054" x2="213.08879" y2="372.70633"><stop offset="0" stop-color="#595959"/><stop offset="1" stop-color="#8E8D8D"/></linearGradient></defs><path fill="url(#gradient_3)" d="M191.943 379.141C198.622 376.227 205.029 373.563 209.921 381.288C210.885 383.907 212.119 387.707 213.363 390.065C213.311 389.45 213.268 388.914 213.244 388.294L213.56 387.962C214.315 388.382 227.01 405.407 228.943 407.772C238.207 419.105 247.748 430.516 257.501 441.443C263.131 447.749 269.606 451.9 274.5 458.993C275.375 457.959 275.945 457.08 277.157 456.494C276.321 457.488 275.457 458.46 274.566 459.406C282.731 467.508 291.931 475.579 301.122 482.512C302.944 483.885 304.519 486.085 306.323 487.497C304.645 489.366 300.64 493.493 299.98 495.748L298.415 495.766C276.867 495.932 255.317 495.917 233.769 495.721C233.451 494.276 228.203 488.824 226.847 487.311C218.952 478.636 211.471 469.593 204.428 460.213C189.647 440.543 180.032 423.625 171.413 400.824C171.129 399.751 170.859 398.674 170.603 397.593C169.932 395.786 168.305 389.562 167.815 388.773L167.98 387.621C168.904 386.159 177.184 384.024 179.228 383.367C183.434 382.016 187.721 380.398 191.943 379.141Z"/><path fill="#151515" d="M213.363 390.065C213.311 389.45 213.268 388.914 213.244 388.294L213.56 387.962C214.315 388.382 227.01 405.407 228.943 407.772C238.207 419.105 247.748 430.516 257.501 441.443C263.131 447.749 269.606 451.9 274.5 458.993C275.375 457.959 275.945 457.08 277.157 456.494C276.321 457.488 275.457 458.46 274.566 459.406C274.029 460.155 268.781 465.082 267.9 465.804C265.372 463.306 262.234 459.792 259.801 457.143C242.878 438.717 222.614 413.379 213.363 390.065Z"/><path fill="#292929" d="M267.9 465.804C268.781 465.082 274.029 460.155 274.566 459.406C282.731 467.508 291.931 475.579 301.122 482.512C302.944 483.885 304.519 486.085 306.323 487.497C304.645 489.366 300.64 493.493 299.98 495.748L298.415 495.766C298.114 494.325 295.345 492.303 294.176 491.252C291.864 489.14 289.569 487.01 287.29 484.862C280.453 478.462 274.481 472.468 267.9 465.804Z"/><path fill="#939292" d="M167.815 388.773L167.98 387.621C168.904 386.159 177.184 384.024 179.228 383.367C183.434 382.016 187.721 380.398 191.943 379.141L191.936 379.595C190.818 380.014 189.498 380.495 188.404 380.962C188.161 381.066 187.49 382.06 186.895 382.527C184.138 384.688 181.147 386.96 178.473 389.213C176.764 390.653 172.482 393.04 171.191 394.379C170.808 395.631 170.506 396.283 170.603 397.593C169.932 395.786 168.305 389.562 167.815 388.773Z"/><defs><linearGradient id="gradient_4" gradientUnits="userSpaceOnUse" x1="100.78175" y1="495.95438" x2="99.228645" y2="424.80945"><stop offset="0" stop-color="#666565"/><stop offset="1" stop-color="#7D7D7D"/></linearGradient></defs><path fill="url(#gradient_4)" d="M91.1547 424.295C94.5954 433.337 100.369 442.379 105.842 450.296C106.469 451.201 108.515 454.384 109.285 454.774C111.837 458.485 114.77 461.915 117.645 465.375C122.543 471.269 127.605 477.129 133.001 482.576C134.873 484.466 145.515 494.363 145.931 495.49C128.201 495.644 110.471 495.68 92.7404 495.598C80.7609 495.598 68.3495 495.828 56.4291 495.716C56.2591 493.436 56.1164 481.498 56.8006 479.886C57.1312 479.631 57.7953 479.165 57.862 478.759C58.1484 477.02 58.354 475.118 58.6468 473.391C59.3441 469.331 60.3692 465.335 61.712 461.441C66.1254 448.915 74.4435 437.945 84.4865 429.413C86.338 427.84 89.0369 425.319 91.1547 424.295Z"/><path fill="#6A6A6A" d="M167.815 388.773C168.305 389.562 169.932 395.786 170.603 397.593C170.859 398.674 171.129 399.751 171.413 400.824C159.101 401.89 143.185 405.011 130.958 407.228C122.713 408.723 108.542 411.53 100.684 414.106C101.869 417.121 103.162 420.466 104.478 423.413C104.96 424.492 110.238 434.975 110.242 434.949C109.412 433.928 108.963 433.195 108.304 432.093C107.483 430.72 106.534 427.141 105.31 426.473L104.95 426.69C101.514 428.738 99.3287 428.182 95.9288 429.826C95.4701 430.048 94.9341 430.264 94.4589 430.477C96.166 434.097 98.0941 437.609 100.232 440.992C101.361 442.745 109.212 454.179 109.285 454.774C108.515 454.384 106.469 451.201 105.842 450.296C100.369 442.379 94.5954 433.337 91.1547 424.295C91.0009 422.965 88.9784 418.134 88.5554 416.123C88.0083 412.6 87.3312 408.871 87.2198 405.335C91.0956 403.525 98.7806 402.009 103.16 400.578C104.672 400.298 105.791 399.996 107.268 399.589C110.169 399.238 115.121 398.143 117.723 397.097C118.754 397.278 141.916 392.907 144.76 392.232C150.073 391.559 158.72 390.401 163.847 389.336C164.762 389.128 166.806 388.908 167.815 388.773Z"/><path fill="#292929" d="M327.467 381.31C329.675 373.123 335.392 374.67 341.71 376.271C344.795 376.912 365.749 382.301 367.428 383.244C367.746 383.935 367.767 383.91 367.838 384.656C371.029 385.776 375.082 385.918 378.505 386.298C381.578 386.668 384.648 387.071 387.713 387.505C403.171 389.627 425.197 392.621 439.745 397.137C439.768 399.62 439.885 403.359 439.547 405.728C438.528 407.395 435.73 417.195 435.826 418.718C442.806 422.589 449.131 427.599 455.182 432.761C462.148 439.677 468.085 446.047 472.617 454.865C475.178 459.848 476.6 464.815 478.404 470.062C478.517 470.393 479.219 471.131 479.496 471.412C479.627 479.524 479.711 487.636 479.746 495.749C470.354 495.486 460.653 495.596 451.248 495.597C429.119 495.679 406.989 495.647 384.86 495.5C381.811 495.816 377.868 495.709 374.747 495.704L359.001 495.676L308.532 495.651C305.718 495.725 302.804 495.719 299.98 495.748C300.64 493.493 304.645 489.366 306.323 487.497C304.519 486.085 302.944 483.885 301.122 482.512C291.931 475.579 282.731 467.508 274.566 459.406C275.457 458.46 276.321 457.488 277.157 456.494C283.615 449.143 290.113 442.153 296.295 434.473C303.412 425.455 309.944 415.991 315.854 406.14C319.886 399.53 323.32 391.817 326.189 384.606C326.524 383.765 326.879 381.837 327.467 381.31Z"/><defs><linearGradient id="gradient_5" gradientUnits="userSpaceOnUse" x1="290.59186" y1="476.1413" x2="357.2309" y2="377.01849"><stop offset="0" stop-color="#414040"/><stop offset="1" stop-color="#6A6A6A"/></linearGradient></defs><path fill="url(#gradient_5)" d="M327.467 381.31C329.675 373.123 335.392 374.67 341.71 376.271C344.795 376.912 365.749 382.301 367.428 383.244C367.746 383.935 367.767 383.91 367.838 384.656L367.533 385.212C369.757 386.055 370.615 386.314 372.809 387.373C371.772 390.486 370.748 395.25 369.639 397.945L369.528 398.226C368.626 400.54 368.087 402.955 367.225 405.258C358.789 427.812 345.753 447.94 331.324 467.065C324.05 476.706 316.44 485.372 308.394 494.346C308.079 494.697 308.405 495.294 308.532 495.651C305.718 495.725 302.804 495.719 299.98 495.748C300.64 493.493 304.645 489.366 306.323 487.497C304.519 486.085 302.944 483.885 301.122 482.512C291.931 475.579 282.731 467.508 274.566 459.406C275.457 458.46 276.321 457.488 277.157 456.494C283.615 449.143 290.113 442.153 296.295 434.473C303.412 425.455 309.944 415.991 315.854 406.14C319.886 399.53 323.32 391.817 326.189 384.606C326.524 383.765 326.879 381.837 327.467 381.31Z"/><path fill="#151515" d="M367.533 385.212C369.757 386.055 370.615 386.314 372.809 387.373C371.772 390.486 370.748 395.25 369.639 397.945L369.528 398.226C368.626 400.54 368.087 402.955 367.225 405.258C358.789 427.812 345.753 447.94 331.324 467.065C324.05 476.706 316.44 485.372 308.394 494.346C308.079 494.697 308.405 495.294 308.532 495.651C305.718 495.725 302.804 495.719 299.98 495.748C300.64 493.493 304.645 489.366 306.323 487.497C312.796 480.751 320.538 471.1 326.264 463.659C345.436 438.745 359.157 415.61 367.533 385.212Z"/><defs><linearGradient id="gradient_6" gradientUnits="userSpaceOnUse" x1="432.27179" y1="496.84232" x2="435.35257" y2="419.46426"><stop offset="0" stop-color="#666565"/><stop offset="1" stop-color="#7E7D7D"/></linearGradient></defs><path fill="url(#gradient_6)" d="M435.826 418.718C442.806 422.589 449.131 427.599 455.182 432.761C462.148 439.677 468.085 446.047 472.617 454.865C475.178 459.848 476.6 464.815 478.404 470.062C478.517 470.393 479.219 471.131 479.496 471.412C479.627 479.524 479.711 487.636 479.746 495.749C470.354 495.486 460.653 495.596 451.248 495.597C429.119 495.679 406.989 495.647 384.86 495.5C385.489 493.926 391.389 488.312 392.792 486.638C401.356 476.425 411.134 465.471 417.902 453.994L418.167 453.902C423.366 446.443 428.214 436.875 432.002 428.589C433.44 425.445 434.397 421.834 435.731 418.921L435.826 418.718Z"/><path fill="#6A6A6A" d="M367.838 384.656C371.029 385.776 375.082 385.918 378.505 386.298C381.578 386.668 384.648 387.071 387.713 387.505C403.171 389.627 425.197 392.621 439.745 397.137C439.768 399.62 439.885 403.359 439.547 405.728C438.528 407.395 435.73 417.195 435.826 418.718L435.731 418.921C434.397 421.834 433.44 425.445 432.002 428.589C428.214 436.875 423.366 446.443 418.167 453.902L417.902 453.994C417.848 453.16 429.026 435.527 430.121 431.398C430.004 430.797 430.063 430.543 429.567 430.098C427.979 428.672 420.927 428.456 418.844 428.415C418.376 428.921 417.999 429.477 417.594 430.035C417.675 429.3 418.864 427.116 419.259 426.306C422.531 419.591 424.313 413.501 426.074 406.309C407.424 402.522 388.586 399.73 369.639 397.945C370.748 395.25 371.772 390.486 372.809 387.373C370.615 386.314 369.757 386.055 367.533 385.212L367.838 384.656Z"/><defs><linearGradient id="gradient_7" gradientUnits="userSpaceOnUse" x1="123.01874" y1="371.73373" x2="73.188339" y2="253.00963"><stop offset="0" stop-color="#414041"/><stop offset="1" stop-color="#6D6D6D"/></linearGradient></defs><path fill="url(#gradient_7)" d="M32.4155 245.591C33.6881 244.207 34.9808 241.835 36.6512 240.796C39.9698 238.734 44.4641 236.95 48.0276 235.378L67.5913 226.778C73.8598 224.03 80.1543 220.61 86.5825 218.447C92.045 216.609 98.952 222.154 99.8118 227.474C100.096 229.234 100.018 230.165 99.7142 231.895C99.115 233.865 98.0604 236.271 96.4406 237.585C96.1348 237.822 95.5494 238.307 95.2497 238.494C95.791 239.943 96.2835 241.302 96.9341 242.707L96.9241 242.92C98.9148 248.066 101.632 253.774 103.882 258.852L116.349 287.09L123.358 302.977C124.289 305.083 126.086 309.483 127.236 311.256L127.614 312.497C131.258 321.26 135.463 329.985 139.207 338.713C140.573 341.897 143.049 346.846 144.11 349.964L144.839 351.231C149.322 361.177 153.896 371.081 158.56 380.944C159.73 383.45 160.904 385.95 161.989 388.494C162.158 388.891 163.437 389.225 163.847 389.336C158.72 390.401 150.073 391.559 144.76 392.232C141.916 392.907 118.754 397.278 117.723 397.097C115.121 398.143 110.169 399.238 107.268 399.589C106.442 397.923 105.551 395.764 104.748 394.019C103.492 390.407 98.1544 380.16 97.6581 377.418C97.178 376.961 96.8495 376.277 96.5127 375.69L96.4852 375.486C95.0724 371.636 92.9076 367.122 91.2144 363.328L83.1261 345.062L76.7991 330.682C75.6096 327.981 73.9295 323.932 72.4386 321.474C72.2844 320.046 66.3318 307.024 65.3377 304.868C59.2386 291.641 53.61 277.242 47.3018 264.22C46.6709 263.515 46.0321 261.371 45.6666 260.335C45.1644 260.409 44.2965 260.44 43.7602 260.477C41.958 260.547 41.0918 260.348 39.375 259.976C37.9888 259.58 36.6486 258.472 35.511 257.595C34.4393 256.654 33.3916 254.878 32.3432 253.625C32.0872 250.71 32.1459 248.491 32.4155 245.591Z"/><path fill="#FEA001" d="M32.4155 245.591C33.6881 244.207 34.9808 241.835 36.6512 240.796C39.9698 238.734 44.4641 236.95 48.0276 235.378L67.5913 226.778C73.8598 224.03 80.1543 220.61 86.5825 218.447C92.045 216.609 98.952 222.154 99.8118 227.474C100.096 229.234 100.018 230.165 99.7142 231.895C99.115 233.865 98.0604 236.271 96.4406 237.585C96.1348 237.822 95.5494 238.307 95.2497 238.494C95.791 239.943 96.2835 241.302 96.9341 242.707L96.9241 242.92C94.2958 243.646 89.3492 246.182 86.6006 247.353L58.5241 259.574C56.0351 260.667 49.6392 263.646 47.3018 264.22C46.6709 263.515 46.0321 261.371 45.6666 260.335C45.1644 260.409 44.2965 260.44 43.7602 260.477C41.958 260.547 41.0918 260.348 39.375 259.976C37.9888 259.58 36.6486 258.472 35.511 257.595C34.4393 256.654 33.3916 254.878 32.3432 253.625C32.0872 250.71 32.1459 248.491 32.4155 245.591Z"/><path fill="#B97F03" d="M35.511 257.595C41.984 255.609 48.2146 252.411 54.3918 249.641C55.8231 249.03 57.7395 248.881 59.1248 248.21C71.2449 242.339 83.8735 237.611 96.1747 232.154C96.8605 231.85 98.8749 231.865 99.7142 231.895C99.115 233.865 98.0604 236.271 96.4406 237.585C96.1348 237.822 95.5494 238.307 95.2497 238.494C95.791 239.943 96.2835 241.302 96.9341 242.707L96.9241 242.92C94.2958 243.646 89.3492 246.182 86.6006 247.353L58.5241 259.574C56.0351 260.667 49.6392 263.646 47.3018 264.22C46.6709 263.515 46.0321 261.371 45.6666 260.335C45.1644 260.409 44.2965 260.44 43.7602 260.477C41.958 260.547 41.0918 260.348 39.375 259.976C37.9888 259.58 36.6486 258.472 35.511 257.595Z"/><path fill="#292929" d="M86.0506 242.419C87.0681 242.289 93.6034 239.13 95.2497 238.494C95.791 239.943 96.2835 241.302 96.9341 242.707L96.9241 242.92C94.2958 243.646 89.3492 246.182 86.6006 247.353L58.5241 259.574C56.0351 260.667 49.6392 263.646 47.3018 264.22C46.6709 263.515 46.0321 261.371 45.6666 260.335C46.3161 259.751 45.9393 259.989 46.9607 259.807C48.2786 258.831 57.0916 255.375 59.2106 254.515C61.8675 253.462 66.4186 251.229 68.9836 249.866C69.9283 249.653 72.7943 248.267 73.7249 247.739C74.0825 247.174 75.6008 245.869 76.1791 245.319C77.7035 244.781 84.6657 242.268 86.0506 242.419Z"/><path fill="#151515" d="M46.9607 259.807C48.2786 258.831 57.0916 255.375 59.2106 254.515C58.9267 255.4 58.7506 256.345 58.0626 256.915C56.0213 257.308 54.2536 257.675 52.2711 258.296C50.8423 258.742 48.2808 260.1 46.9607 259.807Z"/><path fill="#765802" d="M76.1791 245.319C77.7035 244.781 84.6657 242.268 86.0506 242.419C83.9603 243.61 75.9657 247.342 73.7249 247.739C74.0825 247.174 75.6008 245.869 76.1791 245.319Z"/><path fill="#A36604" d="M76.1791 245.319C75.4404 245.723 58.7376 251.977 58.7446 251.977C61.4613 250.324 93.7357 237.036 94.9992 237.238C95.5741 237.33 95.6703 237.605 96.4406 237.585C96.1348 237.822 95.5494 238.307 95.2497 238.494C93.6034 239.13 87.0681 242.289 86.0506 242.419C84.6657 242.268 77.7035 244.781 76.1791 245.319Z"/><path fill="#765802" d="M39.375 259.976C40.8471 257.755 45.6352 258.172 47.8121 256.438C48.5749 255.83 50.1209 256.062 51.076 256.239L51.1924 256.446L50.9816 256.508C49.2435 257.035 46.2906 258.445 44.418 259.155L44.9959 259.466L45.0624 259.772C44.6535 259.888 44.2459 260.008 43.8396 260.132L43.7602 260.477C41.958 260.547 41.0918 260.348 39.375 259.976Z"/><path fill="#765802" d="M68.9836 249.866C67.4173 250.137 66.438 250.418 64.832 250.423L64.9538 250.214C67.6602 248.983 70.7541 247.353 73.7249 247.739C72.7943 248.267 69.9283 249.653 68.9836 249.866Z"/><defs><linearGradient id="gradient_8" gradientUnits="userSpaceOnUse" x1="136.96112" y1="399.82114" x2="123.07641" y2="368.57553"><stop offset="0" stop-color="#191819"/><stop offset="1" stop-color="#343333"/></linearGradient></defs><path fill="url(#gradient_8)" d="M144.11 349.964L144.839 351.231C149.322 361.177 153.896 371.081 158.56 380.944C159.73 383.45 160.904 385.95 161.989 388.494C162.158 388.891 163.437 389.225 163.847 389.336C158.72 390.401 150.073 391.559 144.76 392.232C141.916 392.907 118.754 397.278 117.723 397.097C115.121 398.143 110.169 399.238 107.268 399.589C106.442 397.923 105.551 395.764 104.748 394.019C103.492 390.407 98.1544 380.16 97.6581 377.418C98.2849 377.743 99.4183 380.852 99.7495 381.751C101.017 380.374 104.202 378.07 106.062 378.148C106.47 378.166 106.971 377.949 107.369 377.8C114.462 368.062 122.949 363.846 134.889 363.67C133.983 363.5 133.711 363.683 132.75 363.256C133.532 363.11 136.332 363.335 137.213 363.437C140.386 363.807 143.098 360.708 145.41 358.888C146.173 358.287 146.679 358.619 147.672 358.862C147.679 357.776 144.305 352.488 144.11 349.964Z"/><path fill="#B97F03" d="M134.889 363.67C137.456 363.859 138.784 364.13 141.305 364.64C137.283 372.381 131.408 377.225 123.049 379.896C117.564 381.659 111.694 381.845 106.108 380.433L107.369 377.8C114.462 368.062 122.949 363.846 134.889 363.67Z"/><path fill="#765802" d="M117.723 397.097C119.025 395.069 122.174 391.974 124.195 390.62C133.332 384.501 139.919 383.504 150.291 385.141C149.306 388.47 147.726 390.521 144.76 392.232C141.916 392.907 118.754 397.278 117.723 397.097Z"/><path fill="#FEC927" d="M116.126 322.118C118.881 322.209 120.337 322.459 123.009 323.064C117.383 334.225 107.038 339.5 94.8099 339.982C93.2078 339.864 88.9756 339.85 88.02 338.634C88.2819 336.765 91.0996 333.292 92.4489 331.959C99.1783 325.31 106.806 322.229 116.126 322.118Z"/><path fill="#FEC927" d="M86.9483 259.855C90.5964 259.843 91.7541 260.06 95.3892 260.836C90.7404 271.299 79.6952 276.67 68.778 277.718C65.1275 277.666 63.571 277.553 60.0359 276.704C64.8329 266.388 75.9395 260.595 86.9483 259.855Z"/><path fill="#FEC927" d="M95.4908 280.6C98.789 280.317 101.424 280.824 104.588 281.608C99.8219 291.337 89.5909 297.78 78.8071 298.301C74.6822 298.348 73.2541 298.294 69.2265 297.49C74.0095 287.289 84.6234 281.663 95.4908 280.6Z"/><path fill="#FEC927" d="M102.455 301.586C106.818 301.128 109.539 301.454 113.808 302.254C109.388 311.927 99.6525 317.582 89.37 318.911C86.0101 319.542 81.692 318.857 78.4147 318.089C83.5345 308.487 91.8609 303.366 102.455 301.586Z"/><path fill="#D5A820" d="M121.402 343.081C125.811 342.715 127.86 342.938 132.132 343.947C126.969 353.713 118.452 358.933 107.607 360.467C103.382 360.82 100.938 360.463 96.8243 359.785C101.028 350.086 111.311 344.463 121.402 343.081Z"/></svg>